<svg width="24" height="24" viewBox="0 0 24 24" fill="none" xmlns="http://www.w3.org/2000/svg">
<path fill-rule="evenodd" clip-rule="evenodd" d="M2.93077 11.2003C3.00244 6.23968 7.07619 2.25 12.0789 2.25C15.3873 2.25 18.287 3.99427 19.8934 6.60721C20.1103 6.96007 20.0001 7.42199 19.6473 7.63892C19.2944 7.85585 18.8325 7.74565 18.6156 7.39279C17.2727 5.20845 14.8484 3.75 12.0789 3.75C7.8945 3.75 4.50372 7.0777 4.431 11.1982L4.83138 10.8009C5.12542 10.5092 5.60029 10.511 5.89203 10.8051C6.18377 11.0991 6.18191 11.574 5.88787 11.8657L4.20805 13.5324C3.91565 13.8225 3.44398 13.8225 3.15157 13.5324L1.47176 11.8657C1.17772 11.574 1.17585 11.0991 1.46759 10.8051C1.75933 10.5111 2.2342 10.5092 2.52824 10.8009L2.93077 11.2003Z" fill="#09097A"/>
<path fill-rule="evenodd" clip-rule="evenodd" d="M19.7868 10.4666C20.0789 10.1778 20.5491 10.1778 20.8412 10.4666L22.5275 12.1332C22.8221 12.4244 22.8248 12.8993 22.5337 13.1939C22.2425 13.4885 21.7676 13.4913 21.473 13.2001L21.0631 12.7949C20.9937 17.7604 16.902 21.75 11.8828 21.75C8.56414 21.75 5.65416 20.007 4.04154 17.3939C3.82401 17.0414 3.93342 16.5793 4.28591 16.3618C4.63841 16.1442 5.10051 16.2536 5.31804 16.6061C6.66595 18.7903 9.10034 20.25 11.8828 20.25C16.0891 20.25 19.4925 16.9171 19.5629 12.7969L19.155 13.2001C18.8604 13.4913 18.3855 13.4885 18.0944 13.1939C17.8032 12.8993 17.8059 12.4244 18.1005 12.1333L19.7868 10.4666Z" fill="#09097A"/>
</svg>
