<svg width="24" height="24" viewBox="0 0 24 24" fill="none" xmlns="http://www.w3.org/2000/svg">
<path fill-rule="evenodd" clip-rule="evenodd" d="M13.9205 2.25004C15.0083 2.24952 15.7642 2.24916 16.4556 2.53554C17.147 2.82192 17.6812 3.35671 18.45 4.12625L19.8738 5.55004C20.6434 6.31885 21.1782 6.85313 21.4646 7.54451C21.7509 8.23588 21.7506 8.99184 21.75 10.0796L21.75 15.055C21.75 16.4225 21.75 17.5249 21.6335 18.3918C21.5125 19.2919 21.2536 20.0498 20.6517 20.6517C20.0497 21.2537 19.2919 21.5125 18.3918 21.6336C17.5248 21.7501 16.4225 21.7501 15.0549 21.7501H8.94513C7.57754 21.7501 6.47522 21.7501 5.60825 21.6336C4.70814 21.5125 3.95027 21.2537 3.34835 20.6517C2.74643 20.0498 2.48754 19.2919 2.36652 18.3918C2.24996 17.5249 2.24998 16.4226 2.25 15.055V8.94521C2.24998 7.57763 2.24996 6.4753 2.36652 5.60834C2.48754 4.70823 2.74643 3.95035 3.34835 3.34844C3.95027 2.74652 4.70814 2.48763 5.60825 2.36661C6.47522 2.25005 7.57754 2.25007 8.94513 2.25009L13.9205 2.25004ZM15.8816 3.92136C15.5001 3.76336 15.0653 3.75009 13.7779 3.75009H9C8.54098 3.75009 8.12637 3.75025 7.75001 3.75379V5.50012C7.75001 6.6389 7.75001 7.25012 8.5 7.25012H15.5C16.25 7.25012 16.25 6.6648 16.25 5.50012V4.13194C16.1194 4.037 16.0038 3.97199 15.8816 3.92136ZM5.80812 3.85324C5.94675 3.8346 6.09366 3.81933 6.25001 3.80681L6.25 6.04487C6.24995 6.47768 6.24991 6.87452 6.29331 7.19733C6.3411 7.55281 6.45355 7.92854 6.76257 8.23756C7.07159 8.54658 7.44732 8.65903 7.8028 8.70682C8.12561 8.75022 8.52244 8.75018 8.95525 8.75013H15.0448C15.4776 8.75018 15.8744 8.75022 16.1972 8.70682C16.5527 8.65903 16.9284 8.54658 17.2374 8.23756C17.5465 7.92854 17.6589 7.55281 17.7067 7.19733C17.7501 6.87452 17.7501 6.4777 17.75 6.04489L17.75 5.5476L18.7123 6.5099C19.6227 7.42026 19.9207 7.7371 20.0787 8.11853C20.2367 8.49997 20.25 8.93476 20.25 10.2222V15.0001C20.25 16.4355 20.2484 17.4366 20.1469 18.192C20.0482 18.9257 19.8678 19.3143 19.591 19.5911C19.3142 19.8678 18.9257 20.0483 18.1919 20.1469C18.0533 20.1656 17.9064 20.1808 17.75 20.1934L17.75 14.9554C17.7501 14.5226 17.7501 14.1257 17.7067 13.8029C17.6589 13.4474 17.5465 13.0717 17.2374 12.7627C16.9284 12.4537 16.5527 12.3412 16.1972 12.2934C15.8744 12.25 15.4776 12.2501 15.0448 12.2501H8.95526C8.52244 12.2501 8.12561 12.25 7.8028 12.2934C7.44732 12.3412 7.07159 12.4537 6.76257 12.7627C6.45355 13.0717 6.3411 13.4474 6.29331 13.8029C6.24991 14.1257 6.24995 14.5226 6.25 14.9554L6.25001 20.1934C6.09366 20.1808 5.94675 20.1656 5.80812 20.1469C5.07435 20.0483 4.68577 19.8678 4.40901 19.5911C4.13225 19.3143 3.9518 18.9257 3.85315 18.192C3.75159 17.4366 3.75 16.4355 3.75 15.0001V9.00009C3.75 7.56467 3.75159 6.56356 3.85315 5.80821C3.9518 5.07443 4.13225 4.68586 4.40901 4.4091C4.68577 4.13234 5.07435 3.95189 5.80812 3.85324ZM7.75001 20.2464C8.12637 20.2499 8.54098 20.2501 9 20.2501H15C15.459 20.2501 15.8736 20.2499 16.25 20.2464V15.0001C16.25 13.8795 16.1647 13.7501 15 13.7501H9.00001C7.82874 13.7501 7.75001 13.8385 7.75001 15.0001V20.2464Z" fill="#09097A"/>
</svg>
