<svg width="24" height="25" viewBox="0 0 24 25" fill="none" xmlns="http://www.w3.org/2000/svg">
<path fill-rule="evenodd" clip-rule="evenodd" d="M8.82137 1.87012H15.1789L15.1789 1.87017H16.5822L16.6929 1.87014C17.4938 1.86987 18.0434 1.86969 18.5319 2.0036C19.5575 2.28476 20.4155 2.98816 20.8924 3.93871C21.1195 4.39144 21.2271 4.93042 21.3839 5.71588L21.4056 5.8244L22.0035 8.81401C22.2351 9.97198 21.9178 11.0918 21.25 11.9315V14.6765V14.6766C21.25 16.5143 21.25 17.9699 21.0969 19.1091C20.9392 20.2816 20.6071 21.2305 19.8588 21.9789C19.1104 22.7272 18.1614 23.0594 16.989 23.217C15.8498 23.3701 14.3942 23.3701 12.5565 23.3701H12.5564H11.4436H11.4435C9.6058 23.3701 8.15018 23.3701 7.01098 23.217C5.83856 23.0594 4.88961 22.7272 4.14124 21.9789C3.39288 21.2305 3.06076 20.2816 2.90314 19.1091C2.74997 17.9699 2.74998 16.5143 2.75 14.6765L2.75 11.9316C2.08215 11.0919 1.7648 9.97203 1.99641 8.81401L2.59433 5.8244L2.61601 5.71588C2.77283 4.93042 2.88043 4.39145 3.10754 3.93871C3.58438 2.98816 4.44239 2.28476 5.468 2.0036C5.95648 1.86969 6.50609 1.86987 7.30706 1.87014L7.41772 1.87017H8.82137L8.82137 1.87012ZM15.8981 9.06286L15.9022 9.10608L15.9707 9.79081C16.0887 10.9712 17.082 11.8702 18.2684 11.8702C19.7255 11.8702 20.8184 10.5371 20.5326 9.10818L19.9347 6.11858C19.7475 5.18266 19.6763 4.8598 19.5516 4.61129C19.2655 4.04096 18.7507 3.61892 18.1353 3.45023C17.8672 3.37672 17.5366 3.37017 16.5822 3.37017H15.3289L15.8981 9.06286ZM14.4087 9.24607L13.8211 3.37012H10.1789L9.59465 9.21211C9.45234 10.6352 10.5699 11.8701 12.0001 11.8701C13.4189 11.8701 14.5301 10.6548 14.4087 9.24607ZM18.2684 13.3702C16.9944 13.3702 15.8554 12.7418 15.1618 11.7659C14.4523 12.7341 13.3067 13.3701 12.0001 13.3701C10.6934 13.3701 9.54773 12.734 8.83824 11.7657C8.14465 12.7417 7.00558 13.3702 5.73156 13.3702C5.20268 13.3702 4.70288 13.2637 4.25 13.0725V14.6201C4.25 16.5269 4.25159 17.8816 4.38976 18.9093C4.52502 19.9154 4.77869 20.495 5.2019 20.9182C5.62511 21.3414 6.20476 21.5951 7.21085 21.7304C7.65634 21.7903 8.16327 21.8245 8.75 21.844L8.75 19.0879C8.74998 18.6481 8.74997 18.2688 8.77818 17.9575C8.80802 17.6283 8.87407 17.3023 9.05144 16.9951C9.24892 16.6531 9.53296 16.369 9.875 16.1716C10.1822 15.9942 10.5082 15.9281 10.8374 15.8983C11.1486 15.8701 11.528 15.8701 11.9678 15.8701H12.0322C12.472 15.8701 12.8514 15.8701 13.1627 15.8983C13.4918 15.9281 13.8178 15.9942 14.125 16.1716C14.467 16.369 14.7511 16.6531 14.9486 16.9951C15.1259 17.3023 15.192 17.6283 15.2218 17.9575C15.25 18.2688 15.25 18.6481 15.25 19.0879V21.844C15.8367 21.8245 16.3437 21.7903 16.7892 21.7304C17.7952 21.5951 18.3749 21.3414 18.7981 20.9182C19.2213 20.495 19.475 19.9154 19.6102 18.9093C19.7484 17.8816 19.75 16.5269 19.75 14.6201V13.0725C19.2971 13.2637 18.7973 13.3702 18.2684 13.3702ZM13.75 21.8681V19.1201C13.75 18.639 13.7493 18.3283 13.7279 18.0929C13.7075 17.8677 13.6731 17.786 13.6495 17.7451C13.5837 17.6311 13.489 17.5364 13.375 17.4706C13.3341 17.447 13.2524 17.4126 13.0273 17.3922C12.7918 17.3708 12.4811 17.3701 12 17.3701C11.5189 17.3701 11.2082 17.3708 10.9727 17.3922C10.7476 17.4126 10.6659 17.447 10.625 17.4706C10.511 17.5364 10.4163 17.6311 10.3505 17.7451C10.3269 17.786 10.2925 17.8677 10.2721 18.0929C10.2507 18.3283 10.25 18.639 10.25 19.1201V21.8681C10.6384 21.87 11.0541 21.8701 11.5 21.8701H12.5C12.9459 21.8701 13.3616 21.87 13.75 21.8681ZM5.86458 3.45023C6.1327 3.37672 6.46327 3.37017 7.41772 3.37017H8.67129L8.02922 9.79081C7.91118 10.9712 6.91788 11.8702 5.73156 11.8702C4.2744 11.8702 3.18151 10.5371 3.46728 9.10818L4.0652 6.11858C4.25238 5.18266 4.32364 4.8598 4.4483 4.61129C4.73441 4.04096 5.24921 3.61892 5.86458 3.45023Z" fill="#09097A"/>
</svg>
