<svg width="24" height="24" viewBox="0 0 24 24" fill="none" xmlns="http://www.w3.org/2000/svg">
<path fill-rule="evenodd" clip-rule="evenodd" d="M5.27635 3.41891C6.01291 3.28361 6.9143 3.25773 7.99583 3.25171L8.00418 4.75169C6.91068 4.75777 6.13559 4.78617 5.54735 4.89422C4.98054 4.99834 4.65246 5.16552 4.40901 5.40897C4.13225 5.68573 3.9518 6.0743 3.85315 6.80808C3.75159 7.56343 3.75 8.56454 3.75 9.99996V16C3.75 17.4354 3.75159 18.4365 3.85315 19.1918C3.9518 19.9256 4.13225 20.3142 4.40901 20.591C4.68577 20.8677 5.07435 21.0482 5.80812 21.1468C6.56347 21.2484 7.56458 21.25 9 21.25H15C16.4354 21.25 17.4365 21.2484 18.1919 21.1468C18.9257 21.0482 19.3142 20.8677 19.591 20.591C19.8678 20.3142 20.0482 19.9256 20.1469 19.1918C20.2484 18.4365 20.25 17.4354 20.25 16V9.99996C20.25 8.56454 20.2484 7.56343 20.1469 6.80808C20.0482 6.0743 19.8678 5.68573 19.591 5.40897C19.3475 5.16552 19.0195 4.99834 18.4527 4.89422C17.8644 4.78617 17.0893 4.75777 15.9958 4.75169L16.0042 3.25171C17.0857 3.25773 17.9871 3.28361 18.7236 3.41891C19.4816 3.55814 20.1267 3.82338 20.6517 4.34831C21.2536 4.95023 21.5125 5.7081 21.6335 6.60821C21.75 7.47518 21.75 8.5775 21.75 9.94509V16.0548C21.75 17.4224 21.75 18.5247 21.6335 19.3917C21.5125 20.2918 21.2536 21.0497 20.6517 21.6516C20.0497 22.2535 19.2919 22.5124 18.3918 22.6334C17.5248 22.75 16.4225 22.75 15.0549 22.75H8.94513C7.57754 22.75 6.47522 22.75 5.60825 22.6334C4.70814 22.5124 3.95027 22.2535 3.34835 21.6516C2.74643 21.0497 2.48754 20.2918 2.36652 19.3917C2.24996 18.5247 2.24998 17.4224 2.25 16.0548V9.94508C2.24998 8.57749 2.24996 7.47517 2.36652 6.60821C2.48754 5.7081 2.74643 4.95023 3.34835 4.34831C3.87328 3.82338 4.51835 3.55814 5.27635 3.41891Z" fill="#09097A"/>
<path fill-rule="evenodd" clip-rule="evenodd" d="M6.25 14.5C6.25 14.0858 6.58579 13.75 7 13.75H15C15.4142 13.75 15.75 14.0858 15.75 14.5C15.75 14.9142 15.4142 15.25 15 15.25H7C6.58579 15.25 6.25 14.9142 6.25 14.5Z" fill="#09097A"/>
<path fill-rule="evenodd" clip-rule="evenodd" d="M6.25 18C6.25 17.5858 6.58579 17.25 7 17.25H12.5C12.9142 17.25 13.25 17.5858 13.25 18C13.25 18.4142 12.9142 18.75 12.5 18.75H7C6.58579 18.75 6.25 18.4142 6.25 18Z" fill="#09097A"/>
<path fill-rule="evenodd" clip-rule="evenodd" d="M7.25 3.5C7.25 2.25736 8.25736 1.25 9.5 1.25H14.5C15.7426 1.25 16.75 2.25736 16.75 3.5V4.5C16.75 5.74264 15.7426 6.75 14.5 6.75H9.5C8.25736 6.75 7.25 5.74264 7.25 4.5V3.5ZM9.5 2.75C9.08579 2.75 8.75 3.08579 8.75 3.5V4.5C8.75 4.91421 9.08579 5.25 9.5 5.25H14.5C14.9142 5.25 15.25 4.91421 15.25 4.5V3.5C15.25 3.08579 14.9142 2.75 14.5 2.75H9.5Z" fill="#09097A"/>
</svg>
