<svg width="24" height="24" viewBox="0 0 24 24" fill="none" xmlns="http://www.w3.org/2000/svg">
<path fill-rule="evenodd" clip-rule="evenodd" d="M7.25 17C7.25 18.2426 8.25736 19.25 9.5 19.25C10.7426 19.25 11.75 18.2426 11.75 17C11.75 15.7574 10.7426 14.75 9.5 14.75C8.25736 14.75 7.25 15.7574 7.25 17ZM9.5 20.75C7.42893 20.75 5.75 19.0711 5.75 17C5.75 14.9289 7.42893 13.25 9.5 13.25C11.5711 13.25 13.25 14.9289 13.25 17C13.25 19.0711 11.5711 20.75 9.5 20.75Z" fill="#09097A"/>
<path fill-rule="evenodd" clip-rule="evenodd" d="M16.75 7C16.75 8.24264 15.7426 9.25 14.5 9.25C13.2574 9.25 12.25 8.24264 12.25 7C12.25 5.75736 13.2574 4.75 14.5 4.75C15.7426 4.75 16.75 5.75736 16.75 7ZM14.5 10.75C16.5711 10.75 18.25 9.07107 18.25 7C18.25 4.92893 16.5711 3.25 14.5 3.25C12.4289 3.25 10.75 4.92893 10.75 7C10.75 9.07107 12.4289 10.75 14.5 10.75Z" fill="#09097A"/>
<path fill-rule="evenodd" clip-rule="evenodd" d="M14.25 16.9585C14.25 16.5443 14.5858 16.2085 15 16.2085L22 16.2085C22.4142 16.2085 22.75 16.5443 22.75 16.9585C22.75 17.3727 22.4142 17.7085 22 17.7085L15 17.7085C14.5858 17.7085 14.25 17.3727 14.25 16.9585Z" fill="#09097A"/>
<path fill-rule="evenodd" clip-rule="evenodd" d="M9.75 6.9585C9.75 6.54428 9.41421 6.2085 9 6.2085L2 6.2085C1.58579 6.2085 1.25 6.54428 1.25 6.9585C1.25 7.37271 1.58579 7.7085 2 7.7085L9 7.7085C9.41421 7.7085 9.75 7.37271 9.75 6.9585Z" fill="#09097A"/>
<path fill-rule="evenodd" clip-rule="evenodd" d="M1.25 16.9585C1.25 16.5443 1.58579 16.2085 2 16.2085L4 16.2085C4.41421 16.2085 4.75 16.5443 4.75 16.9585C4.75 17.3727 4.41421 17.7085 4 17.7085L2 17.7085C1.58579 17.7085 1.25 17.3727 1.25 16.9585Z" fill="#09097A"/>
<path fill-rule="evenodd" clip-rule="evenodd" d="M22.75 6.9585C22.75 6.54428 22.4142 6.2085 22 6.2085L20 6.2085C19.5858 6.2085 19.25 6.54428 19.25 6.9585C19.25 7.37271 19.5858 7.7085 20 7.7085L22 7.7085C22.4142 7.7085 22.75 7.37271 22.75 6.9585Z" fill="#09097A"/>
</svg>
