<svg width="32" height="28" viewBox="0 0 32 28" fill="none" xmlns="http://www.w3.org/2000/svg">
<rect y="4" width="32" height="20" rx="4" fill="#F2F5FF"/>
<path fill-rule="evenodd" clip-rule="evenodd" d="M14.629 8.16663H17.3709C18.596 8.16662 19.5665 8.16661 20.3259 8.26872C21.1075 8.3738 21.7402 8.59521 22.2391 9.09412C22.738 9.59303 22.9594 10.2257 23.0645 11.0073C23.1666 11.7668 23.1666 12.7372 23.1666 13.9624V14.0376C23.1666 15.2627 23.1666 16.2332 23.0645 16.9926C22.9594 17.7743 22.738 18.4069 22.2391 18.9058C21.7402 19.4047 21.1075 19.6261 20.3259 19.7312C19.5665 19.8333 18.596 19.8333 17.3709 19.8333H14.629C13.4038 19.8333 12.4334 19.8333 11.6739 19.7312C10.8923 19.6261 10.2597 19.4047 9.76075 18.9058C9.26184 18.4069 9.04043 17.7743 8.93534 16.9926C8.83323 16.2332 8.83324 15.2627 8.83325 14.0376V13.9623C8.83324 12.7372 8.83323 11.7668 8.93534 11.0073C9.04043 10.2257 9.26184 9.59303 9.76075 9.09412C10.2597 8.59521 10.8923 8.3738 11.6739 8.26872C12.4334 8.16661 13.4038 8.16662 14.629 8.16663ZM11.8072 9.2598C11.1364 9.34998 10.75 9.51909 10.4679 9.80123C10.1857 10.0834 10.0166 10.4698 9.92642 11.1405C9.83431 11.8256 9.83325 12.7287 9.83325 14C9.83325 15.2712 9.83431 16.1743 9.92642 16.8594C10.0166 17.5301 10.1857 17.9166 10.4679 18.1987C10.75 18.4808 11.1364 18.6499 11.8072 18.7401C12.4923 18.8322 13.3954 18.8333 14.6666 18.8333H17.3333C18.6045 18.8333 19.5076 18.8322 20.1927 18.7401C20.8634 18.6499 21.2498 18.4808 21.532 18.1987C21.8141 17.9166 21.9832 17.5301 22.0734 16.8594C22.1655 16.1743 22.1666 15.2712 22.1666 14C22.1666 12.7287 22.1655 11.8256 22.0734 11.1405C21.9832 10.4698 21.8141 10.0834 21.532 9.80123C21.2498 9.51909 20.8634 9.34998 20.1927 9.2598C19.5076 9.16769 18.6045 9.16663 17.3333 9.16663H14.6666C13.3954 9.16663 12.4923 9.16769 11.8072 9.2598Z" fill="#9FB2E4"/>
<path fill-rule="evenodd" clip-rule="evenodd" d="M20.3841 11.0133C20.5609 11.2254 20.5322 11.5407 20.3201 11.7175L18.8558 12.9378C18.2649 13.4302 17.7859 13.8293 17.3632 14.1012C16.9229 14.3844 16.4941 14.5633 16 14.5633C15.506 14.5633 15.0771 14.3844 14.6368 14.1012C14.2141 13.8293 13.7352 13.4302 13.1442 12.9378L11.6799 11.7175C11.4678 11.5407 11.4391 11.2254 11.6159 11.0133C11.7927 10.8012 12.108 10.7725 12.3201 10.9493L13.7594 12.1487C14.3813 12.667 14.8132 13.0257 15.1777 13.2601C15.5306 13.4871 15.77 13.5633 16 13.5633C16.2301 13.5633 16.4694 13.4871 16.8223 13.2601C17.1869 13.0257 17.6187 12.667 18.2407 12.1487L19.6799 10.9493C19.8921 10.7725 20.2073 10.8012 20.3841 11.0133Z" fill="#9FB2E4"/>
</svg>
