<svg width="24" height="24" viewBox="0 0 24 24" fill="none" xmlns="http://www.w3.org/2000/svg">
<path fill-rule="evenodd" clip-rule="evenodd" d="M12.0574 1.25C14.3658 1.24999 16.1748 1.24998 17.5863 1.43975C19.031 1.63399 20.1711 2.03933 21.0659 2.93414C21.9607 3.82895 22.366 4.96897 22.5603 6.41371C22.75 7.82519 22.75 9.63423 22.75 11.9426V12.0574C22.75 14.3658 22.75 16.1748 22.5603 17.5863C22.366 19.031 21.9607 20.1711 21.0659 21.0659C20.1711 21.9607 19.031 22.366 17.5863 22.5603C16.1748 22.75 14.3658 22.75 12.0574 22.75H11.9426C9.63423 22.75 7.82519 22.75 6.41371 22.5603C4.96897 22.366 3.82895 21.9607 2.93414 21.0659C2.03933 20.1711 1.63399 19.031 1.43975 17.5863C1.24998 16.1748 1.24999 14.3658 1.25 12.0574V12.0574V11.9426V11.9426C1.24999 9.63423 1.24998 7.82519 1.43975 6.41371C1.63399 4.96897 2.03933 3.82895 2.93414 2.93414C3.82895 2.03933 4.96897 1.63399 6.41371 1.43975C7.82519 1.24998 9.63422 1.24999 11.9426 1.25H11.9426H12.0574H12.0574ZM11.875 5.88C10.3562 5.88 9.125 7.11122 9.125 8.63C9.125 9.11325 9.51675 9.505 10 9.505C10.4832 9.505 10.875 9.11325 10.875 8.63C10.875 8.07772 11.3227 7.63 11.875 7.63C12.4273 7.63 12.875 8.07772 12.875 8.63C12.875 8.99571 12.6792 9.31645 12.3828 9.49181C12.0974 9.66067 11.7705 9.89579 11.5063 10.2071C11.2386 10.5226 11 10.9607 11 11.505V12.755C11 13.2383 11.3918 13.63 11.875 13.63C12.3582 13.63 12.75 13.2383 12.75 12.755V11.6925C12.75 11.5363 12.751 11.445 12.8406 11.3395C12.9342 11.2291 13.084 11.1103 13.2739 10.998C14.0807 10.5206 14.625 9.63938 14.625 8.63C14.625 7.11122 13.3938 5.88 11.875 5.88ZM10.875 16.255C10.875 15.6337 11.3787 15.13 12 15.13C12.6213 15.13 13.125 15.6337 13.125 16.255C13.125 16.8763 12.6213 17.38 12 17.38C11.3787 17.38 10.875 16.8763 10.875 16.255Z" fill="black"/>
</svg>
