<svg width="20" height="20" viewBox="0 0 20 20" fill="none" xmlns="http://www.w3.org/2000/svg">
<path fill-rule="evenodd" clip-rule="evenodd" d="M10.0477 1.04297C11.9713 1.04296 13.4788 1.04295 14.6551 1.20109C15.859 1.36296 16.8091 1.70074 17.5547 2.44642C18.3004 3.19209 18.6382 4.14211 18.8 5.34606C18.9582 6.5223 18.9582 8.02983 18.9582 9.95349V10.0491C18.9582 11.9728 18.9582 13.4803 18.8 14.6565C18.6382 15.8605 18.3004 16.8105 17.5547 17.5562C16.8091 18.3019 15.859 18.6396 14.6551 18.8015C13.4788 18.9597 11.9713 18.9596 10.0476 18.9596H9.95203C8.02836 18.9596 6.52083 18.9597 5.34459 18.8015C4.14065 18.6396 3.19063 18.3019 2.44495 17.5562C1.69928 16.8105 1.36149 15.8605 1.19963 14.6565C1.04149 13.4803 1.04149 11.9728 1.0415 10.0491V10.0491V9.95349V9.95348C1.04149 8.02983 1.04149 6.52229 1.19963 5.34606C1.36149 4.14211 1.69928 3.19209 2.44495 2.44642C3.19063 1.70074 4.14065 1.36296 5.34459 1.20109C6.52083 1.04295 8.02835 1.04296 9.95201 1.04297H9.95202H10.0477H10.0477ZM9.89567 4.90131C8.63002 4.90131 7.604 5.92732 7.604 7.19297C7.604 7.59568 7.93046 7.92214 8.33317 7.92214C8.73588 7.92214 9.06234 7.59568 9.06234 7.19297C9.06234 6.73274 9.43543 6.35964 9.89567 6.35964C10.3559 6.35964 10.729 6.73274 10.729 7.19297C10.729 7.49773 10.5659 7.76501 10.3189 7.91115C10.081 8.05186 9.80858 8.2478 9.58841 8.50725C9.36531 8.77014 9.1665 9.13523 9.1665 9.58881V10.6305C9.1665 11.0332 9.49296 11.3596 9.89567 11.3596C10.2984 11.3596 10.6248 11.0332 10.6248 10.6305V9.74506C10.6248 9.61485 10.6257 9.53877 10.7003 9.45085C10.7783 9.35891 10.9031 9.25991 11.0614 9.16626C11.7338 8.76849 12.1873 8.03412 12.1873 7.19297C12.1873 5.92732 11.1613 4.90131 9.89567 4.90131ZM9.06234 13.5471C9.06234 13.0294 9.48207 12.6096 9.99984 12.6096C10.5176 12.6096 10.9373 13.0294 10.9373 13.5471C10.9373 14.0649 10.5176 14.4846 9.99984 14.4846C9.48207 14.4846 9.06234 14.0649 9.06234 13.5471Z" fill="#AFAFAF"/>
</svg>
