<svg width="24" height="24" viewBox="0 0 24 24" fill="none" xmlns="http://www.w3.org/2000/svg">
<path fill-rule="evenodd" clip-rule="evenodd" d="M12 9.75C10.7574 9.75 9.75 10.7574 9.75 12C9.75 13.2426 10.7574 14.25 12 14.25C13.2426 14.25 14.25 13.2426 14.25 12C14.25 10.7574 13.2426 9.75 12 9.75ZM8.25 12C8.25 9.92893 9.92893 8.25 12 8.25C14.0711 8.25 15.75 9.92893 15.75 12C15.75 14.0711 14.0711 15.75 12 15.75C9.92893 15.75 8.25 14.0711 8.25 12Z" fill="#09097a"/>
<path fill-rule="evenodd" clip-rule="evenodd" d="M11.9747 1.25H12.0252C12.4697 1.24999 12.8407 1.24999 13.1454 1.27077C13.4625 1.29241 13.762 1.33905 14.0524 1.45933C14.7262 1.73844 15.2616 2.27379 15.5407 2.94762C15.686 3.2984 15.7253 3.66808 15.7403 4.06991C15.7524 4.39297 15.9155 4.66253 16.1561 4.80144C16.3967 4.94036 16.7117 4.94679 16.9975 4.79572C17.353 4.60782 17.6928 4.45706 18.0692 4.4075C18.7924 4.3123 19.5237 4.50826 20.1023 4.95225C20.3517 5.1436 20.5418 5.37967 20.7191 5.64347C20.8894 5.89689 21.0749 6.21824 21.2972 6.60318L21.3224 6.64684C21.5446 7.03176 21.7302 7.3531 21.8645 7.6273C22.0043 7.91274 22.1136 8.19545 22.1547 8.50708C22.2499 9.23019 22.0539 9.96149 21.6099 10.5401C21.3788 10.8414 21.0783 11.0603 20.7377 11.2742C20.464 11.4462 20.3121 11.7221 20.3121 11.9999C20.3121 12.2778 20.464 12.5538 20.7378 12.7258C21.0782 12.9397 21.3787 13.1586 21.6098 13.4598C22.0538 14.0384 22.2498 14.7697 22.1546 15.4929C22.1135 15.8045 22.0042 16.0872 21.8644 16.3726C21.7301 16.6468 21.5445 16.9682 21.3223 17.3531L21.2971 17.3968C21.0748 17.7817 20.8893 18.103 20.719 18.3565C20.5417 18.6203 20.3516 18.8563 20.1022 19.0477C19.5236 19.4917 18.7923 19.6876 18.0692 19.5924C17.6927 19.5429 17.3529 19.3921 16.9974 19.2042C16.7116 19.0532 16.3966 19.0596 16.156 19.1985C15.9154 19.3375 15.7524 19.607 15.7403 19.93C15.7253 20.3319 15.686 20.7016 15.5407 21.0524C15.2616 21.7262 14.7262 22.2616 14.0524 22.5407C13.762 22.661 13.4625 22.7076 13.1454 22.7292C12.8407 22.75 12.4697 22.75 12.0252 22.75H11.9747C11.5303 22.75 11.1592 22.75 10.8546 22.7292C10.5375 22.7076 10.238 22.661 9.94761 22.5407C9.27379 22.2616 8.73843 21.7262 8.45932 21.0524C8.31403 20.7016 8.27467 20.3319 8.25964 19.9301C8.24756 19.607 8.08452 19.3375 7.8439 19.1986C7.60329 19.0596 7.28833 19.0532 7.0025 19.2043C6.647 19.3922 6.30717 19.5429 5.93073 19.5925C5.20763 19.6877 4.47632 19.4917 3.89769 19.0477C3.64833 18.8564 3.45817 18.6203 3.28089 18.3565C3.11058 18.1031 2.92507 17.7818 2.70284 17.3969L2.67759 17.3531C2.45535 16.9682 2.26983 16.6469 2.13552 16.3727C1.99571 16.0873 1.88634 15.8045 1.84531 15.4929C1.75012 14.7698 1.94607 14.0385 2.39007 13.4599C2.62121 13.1587 2.92169 12.9397 3.26217 12.7258C3.53592 12.5538 3.68785 12.2778 3.68786 12C3.68788 11.7221 3.53595 11.4461 3.26217 11.2741C2.92173 11.0602 2.62128 10.8413 2.39016 10.5401C1.94617 9.96142 1.75021 9.23012 1.84541 8.50701C1.88644 8.19538 1.99581 7.91267 2.13562 7.62723C2.26993 7.35304 2.45545 7.03172 2.67769 6.64681L2.70294 6.60306C2.92517 6.21814 3.11068 5.89681 3.28099 5.6434C3.45827 5.3796 3.64843 5.14353 3.89779 4.95219C4.47642 4.50819 5.20773 4.31223 5.93083 4.40743C6.30729 4.45699 6.64714 4.60777 7.00266 4.79568C7.28845 4.94673 7.60337 4.94031 7.84395 4.80141C8.08454 4.66251 8.24756 4.39299 8.25964 4.06996C8.27467 3.66812 8.31402 3.29842 8.45932 2.94762C8.73843 2.27379 9.27379 1.73844 9.94761 1.45933C10.238 1.33905 10.5375 1.29241 10.8546 1.27077C11.1592 1.24999 11.5303 1.24999 11.9747 1.25ZM10.9567 2.76729C10.716 2.78372 10.5988 2.81319 10.5216 2.84515C10.2154 2.97202 9.97201 3.21536 9.84514 3.52165C9.80512 3.61827 9.77195 3.76889 9.75859 4.12602C9.72896 4.91837 9.31998 5.68128 8.59394 6.10045C7.86791 6.51962 7.00273 6.49235 6.30173 6.12184C5.98576 5.95483 5.83873 5.90825 5.73504 5.8946C5.40636 5.85133 5.07395 5.9404 4.81093 6.14221C4.74468 6.19305 4.66054 6.27983 4.52596 6.48009C4.3876 6.68596 4.22746 6.96253 3.98935 7.37493C3.75125 7.78734 3.59181 8.06431 3.4827 8.28707C3.37656 8.50375 3.34348 8.62 3.33258 8.7028C3.28931 9.03148 3.37838 9.3639 3.58019 9.62691C3.64385 9.70987 3.75768 9.81389 4.06021 10.004C4.73165 10.4259 5.18791 11.1616 5.18786 12.0001C5.18782 12.8384 4.73158 13.5741 4.0602 13.9959C3.75761 14.186 3.64376 14.2901 3.5801 14.373C3.37828 14.636 3.28921 14.9684 3.33248 15.2971C3.34338 15.3799 3.37646 15.4962 3.4826 15.7129C3.59171 15.9356 3.75115 16.2126 3.98926 16.625C4.22736 17.0374 4.38751 17.314 4.52586 17.5198C4.66045 17.7201 4.74458 17.8069 4.81084 17.8577C5.07385 18.0595 5.40626 18.1486 5.73495 18.1053C5.83863 18.0917 5.98565 18.0451 6.30158 17.8781C7.00262 17.5076 7.86784 17.4803 8.5939 17.8995C9.31997 18.3187 9.72896 19.0817 9.75859 19.874C9.77195 20.2311 9.80512 20.3817 9.84514 20.4784C9.97201 20.7846 10.2154 21.028 10.5216 21.1549C10.5988 21.1868 10.716 21.2163 10.9567 21.2327C11.2042 21.2496 11.5238 21.25 12 21.25C12.4762 21.25 12.7958 21.2496 13.0432 21.2327C13.284 21.2163 13.4012 21.1868 13.4783 21.1549C13.7846 21.028 14.028 20.7846 14.1548 20.4784C14.1949 20.3817 14.228 20.2311 14.2414 19.874C14.271 19.0816 14.68 18.3187 15.4059 17.8995C16.132 17.4803 16.9973 17.5075 17.6983 17.8781C18.0142 18.045 18.1613 18.0916 18.2649 18.1053C18.5936 18.1485 18.926 18.0595 19.189 17.8576C19.2553 17.8068 19.3394 17.72 19.474 17.5198C19.6124 17.3139 19.7725 17.0373 20.0106 16.6249C20.2487 16.2125 20.4082 15.9356 20.5173 15.7128C20.6234 15.4961 20.6565 15.3799 20.6674 15.2971C20.7107 14.9684 20.6216 14.636 20.4198 14.373C20.3561 14.29 20.2423 14.186 19.9397 13.9959C19.2683 13.574 18.8121 12.8383 18.8121 11.9999C18.8122 11.1616 19.2684 10.426 19.9397 10.0041C20.2424 9.81399 20.3562 9.70995 20.4199 9.62698C20.6217 9.36397 20.7108 9.03155 20.6675 8.70287C20.6566 8.62007 20.6235 8.50382 20.5174 8.28713C20.4083 8.06438 20.2488 7.78741 20.0107 7.375C19.7726 6.9626 19.6125 6.68603 19.4741 6.48016C19.3395 6.27989 19.2554 6.19312 19.1891 6.14228C18.9261 5.94047 18.5937 5.8514 18.265 5.89467C18.1614 5.90832 18.0143 5.9549 17.6984 6.12188C16.9974 6.4924 16.1321 6.51968 15.4061 6.10048C14.68 5.68129 14.271 4.91835 14.2414 4.12597C14.228 3.76887 14.1949 3.61826 14.1548 3.52165C14.028 3.21536 13.7846 2.97202 13.4783 2.84515C13.4012 2.81319 13.284 2.78372 13.0432 2.76729C12.7958 2.75041 12.4762 2.75 12 2.75C11.5238 2.75 11.2042 2.75041 10.9567 2.76729Z" fill="#09097a"/>
</svg>
